<svg width="24" height="24" viewBox="0 0 24 24" fill="none" xmlns="http://www.w3.org/2000/svg">
<path fill-rule="evenodd" clip-rule="evenodd" d="M20.1842 6.54346L20.8066 7.62355V7.63271C21.3264 8.54343 21.0161 9.70283 20.111 10.2322C19.8213 10.3981 19.5812 10.6383 19.4153 10.9279C19.1602 11.3658 19.0902 11.8872 19.2208 12.3769C19.3514 12.8665 19.6717 13.2839 20.111 13.5366C20.5502 13.7893 20.8706 14.2067 21.0012 14.6963C21.1317 15.1859 21.0617 15.7074 20.8066 16.1453L20.1476 17.2437C19.6179 18.1543 18.4517 18.4653 17.5389 17.9393C17.2596 17.7797 16.9451 17.6917 16.6236 17.6831C16.1154 17.6806 15.6274 17.8814 15.2681 18.2407C14.9088 18.6 14.7081 19.088 14.7105 19.5961C14.7055 20.6491 13.8505 21.5 12.7975 21.5H11.5435C10.4869 21.5 9.63043 20.6435 9.63043 19.5869C9.62708 19.2646 9.53867 18.9488 9.37413 18.6716C9.12321 18.233 8.70746 17.9128 8.21931 17.7821C7.73116 17.6515 7.21105 17.7213 6.77459 17.976C6.33061 18.2248 5.80575 18.2865 5.31616 18.1474C4.82657 18.0082 4.41262 17.6797 4.16589 17.2345L3.53432 16.1453C3.0092 15.2353 3.32053 14.0719 4.22997 13.5457C4.82187 13.204 5.1865 12.5725 5.1865 11.889C5.1865 11.2055 4.82187 10.574 4.22997 10.2322C3.31937 9.70255 3.00838 8.53633 3.53432 7.62355L4.20251 6.52516C4.72908 5.61123 5.89603 5.29595 6.8112 5.82035C7.08843 5.98488 7.40418 6.07329 7.72654 6.07664C8.77245 6.07675 9.62457 5.23686 9.63958 4.19106C9.63714 3.68453 9.83666 3.19791 10.194 2.83888C10.5513 2.47985 11.0369 2.27801 11.5435 2.27802H12.7975C13.3145 2.2778 13.8096 2.48688 14.17 2.85761C14.5304 3.22834 14.7254 3.72916 14.7105 4.24598C14.7139 4.56833 14.8023 4.88409 14.9668 5.16131C15.2226 5.59746 15.6413 5.91396 16.1307 6.04103C16.6201 6.16809 17.1399 6.09528 17.5755 5.83866C18.4907 5.31426 19.6576 5.62954 20.1842 6.54346ZM12.1751 14.5252C13.631 14.5252 14.8112 13.3449 14.8112 11.889C14.8112 10.4331 13.631 9.25287 12.1751 9.25287C10.7192 9.25287 9.53891 10.4331 9.53891 11.889C9.53891 13.3449 10.7192 14.5252 12.1751 14.5252Z" fill="#B4C1C0"/>
</svg>
