<svg width="103" height="100" viewBox="0 0 103 100" fill="none" xmlns="http://www.w3.org/2000/svg">
<g filter="url(#filter0_d_1_561)">
<path d="M66.5 29H36.5C35.1193 29 34 30.1193 34 31.5V58.1667C34 59.5474 35.1193 60.6667 36.5 60.6667H66.5C67.8807 60.6667 69 59.5474 69 58.1667V31.5C69 30.1193 67.8807 29 66.5 29Z" fill="#1D509C"/>
</g>
<path d="M66.5 29H36.5C35.1193 29 34 30.1193 34 31.5V54.8333C34 56.214 35.1193 57.3333 36.5 57.3333H66.5C67.8807 57.3333 69 56.214 69 54.8333V31.5C69 30.1193 67.8807 29 66.5 29Z" fill="#3179E4"/>
<path d="M63.1667 36.5H49C48.779 36.5 48.567 36.4122 48.4107 36.2559C48.2545 36.0996 48.1667 35.8877 48.1667 35.6666C48.1667 35.4456 48.2545 35.2337 48.4107 35.0774C48.567 34.9211 48.779 34.8333 49 34.8333H63.1667C63.3877 34.8333 63.5996 34.9211 63.7559 35.0774C63.9122 35.2337 64 35.4456 64 35.6666C64 35.8877 63.9122 36.0996 63.7559 36.2559C63.5996 36.4122 63.3877 36.5 63.1667 36.5Z" fill="#F9F6F6"/>
<path d="M58.1667 40.6666H49C48.779 40.6666 48.567 40.5788 48.4107 40.4226C48.2545 40.2663 48.1667 40.0543 48.1667 39.8333C48.1667 39.6123 48.2545 39.4003 48.4107 39.244C48.567 39.0878 48.779 39 49 39H58.1667C58.3877 39 58.5996 39.0878 58.7559 39.244C58.9122 39.4003 59 39.6123 59 39.8333C59 40.0543 58.9122 40.2663 58.7559 40.4226C58.5996 40.5788 58.3877 40.6666 58.1667 40.6666Z" fill="#F9F6F6"/>
<path d="M41.725 40.5C41.5264 40.5 41.3343 40.4291 41.1833 40.3L39.2916 38.7C39.1237 38.5563 39.0197 38.3518 39.0025 38.1315C38.9853 37.9111 39.0563 37.6929 39.2 37.525C39.3436 37.357 39.5481 37.253 39.7685 37.2358C39.9889 37.2186 40.207 37.2897 40.375 37.4333L41.6 38.4666L44.175 35.1333C44.3147 34.9737 44.5101 34.8734 44.7212 34.8529C44.9323 34.8323 45.1433 34.8931 45.3112 35.0227C45.4791 35.1524 45.5913 35.3411 45.6248 35.5506C45.6583 35.7601 45.6107 35.9744 45.4917 36.15L42.3833 40.15C42.3139 40.2389 42.2271 40.3129 42.1283 40.3673C42.0295 40.4217 41.9206 40.4555 41.8083 40.4666L41.725 40.5Z" fill="#F9F6F6"/>
<path d="M63.1667 46.5H49C48.779 46.5 48.567 46.4122 48.4107 46.2559C48.2545 46.0996 48.1667 45.8877 48.1667 45.6666C48.1667 45.4456 48.2545 45.2337 48.4107 45.0774C48.567 44.9211 48.779 44.8333 49 44.8333H63.1667C63.3877 44.8333 63.5996 44.9211 63.7559 45.0774C63.9122 45.2337 64 45.4456 64 45.6666C64 45.8877 63.9122 46.0996 63.7559 46.2559C63.5996 46.4122 63.3877 46.5 63.1667 46.5Z" fill="#F9F6F6"/>
<path d="M58.1667 50.6666H49C48.779 50.6666 48.567 50.5788 48.4107 50.4226C48.2545 50.2663 48.1667 50.0543 48.1667 49.8333C48.1667 49.6123 48.2545 49.4003 48.4107 49.244C48.567 49.0878 48.779 49 49 49H58.1667C58.3877 49 58.5996 49.0878 58.7559 49.244C58.9122 49.4003 59 49.6123 59 49.8333C59 50.0543 58.9122 50.2663 58.7559 50.4226C58.5996 50.5788 58.3877 50.6666 58.1667 50.6666Z" fill="#F9F6F6"/>
<path d="M41.725 50.5C41.5264 50.5 41.3343 50.4291 41.1833 50.3L39.2916 48.7C39.1237 48.5563 39.0197 48.3518 39.0025 48.1314C38.9853 47.9111 39.0563 47.6929 39.2 47.525C39.3436 47.357 39.5481 47.253 39.7685 47.2358C39.9889 47.2186 40.207 47.2896 40.375 47.4333L41.6 48.4666L44.175 45.1333C44.2388 45.0391 44.3213 44.9591 44.4172 44.898C44.5132 44.8369 44.6207 44.7961 44.733 44.7781C44.8453 44.7601 44.9602 44.7653 45.0704 44.7934C45.1806 44.8215 45.284 44.8719 45.374 44.9414C45.4641 45.0109 45.5389 45.0981 45.594 45.1977C45.649 45.2972 45.6831 45.407 45.6941 45.5202C45.7051 45.6335 45.6929 45.7478 45.658 45.8561C45.6232 45.9644 45.5666 46.0644 45.4917 46.15L42.3833 50.15C42.3139 50.2389 42.2271 50.3129 42.1283 50.3673C42.0295 50.4217 41.9206 50.4555 41.8083 50.4666L41.725 50.5Z" fill="#F9F6F6"/>
<defs>
<filter id="filter0_d_1_561" x="0" y="0" width="103" height="99.6667" filterUnits="userSpaceOnUse" color-interpolation-filters="sRGB">
<feFlood flood-opacity="0" result="BackgroundImageFix"/>
<feColorMatrix in="SourceAlpha" type="matrix" values="0 0 0 0 0 0 0 0 0 0 0 0 0 0 0 0 0 0 127 0" result="hardAlpha"/>
<feOffset dy="5"/>
<feGaussianBlur stdDeviation="17"/>
<feComposite in2="hardAlpha" operator="out"/>
<feColorMatrix type="matrix" values="0 0 0 0 0.113725 0 0 0 0 0.313726 0 0 0 0 0.611765 0 0 0 0.35 0"/>
<feBlend mode="normal" in2="BackgroundImageFix" result="effect1_dropShadow_1_561"/>
<feBlend mode="normal" in="SourceGraphic" in2="effect1_dropShadow_1_561" result="shape"/>
</filter>
</defs>
</svg>
