<svg width="105" height="101" viewBox="0 0 105 101" fill="none" xmlns="http://www.w3.org/2000/svg">
<g filter="url(#filter0_d_1_445)">
<path d="M4.06964 26.9195L19.1815 80.5358L73.9386 65.1023C78.9789 63.6817 81.9132 58.4441 80.4926 53.4039L67.9529 8.91379C67.7753 8.2838 67.1206 7.91698 66.4906 8.09455L4.88888 25.4572C4.25889 25.6347 3.89207 26.2895 4.06964 26.9195Z" fill="#FEEFCD"/>
</g>
<path d="M10.5927 23.8495L4.88888 25.4572C4.25889 25.6347 3.89207 26.2895 4.06964 26.9195L19.1815 80.5358L24.8854 78.9281L9.7735 25.3118C9.59594 24.6818 9.96275 24.0271 10.5927 23.8495Z" fill="#FDE8B4"/>
<path d="M61.1632 58.852L8.70545 73.6373C8.00673 73.8343 7.6524 74.6054 7.94696 75.2688C9.82886 79.5072 14.5872 81.8307 19.1814 80.5358L73.9385 65.1024C69.2385 66.4271 64.3669 63.965 62.5787 59.5397C62.3539 58.9829 61.7413 58.689 61.1632 58.852Z" fill="#FDE09B"/>
<path d="M35.3374 24.2636C35.0455 24.3458 34.7221 24.3168 34.4365 24.1568L20.5447 16.374C19.9735 16.0541 19.7699 15.3319 20.09 14.7608C20.4099 14.1898 21.1322 13.9862 21.7032 14.3061L35.5951 22.0889C36.1662 22.4088 36.3698 23.1311 36.0497 23.7021C35.8899 23.9876 35.6293 24.1813 35.3374 24.2636Z" fill="#C9BFCB"/>
<path d="M22.7316 21.0438C25.8818 20.156 27.7157 16.8825 26.8278 13.7323C25.94 10.5822 22.6665 8.74824 19.5163 9.63612C16.3662 10.524 14.5322 13.7975 15.4201 16.9476C16.308 20.0978 19.5815 21.9317 22.7316 21.0438Z" fill="#FFBB55"/>
<path d="M24.7797 17.3881C21.6296 18.276 18.3561 16.442 17.4682 13.2919C17.2324 12.4551 17.1903 11.6101 17.3122 10.8029C15.5852 12.2557 14.7681 14.6343 15.4201 16.9476C16.308 20.0977 19.5815 21.9317 22.7316 21.0438C25.0449 20.3918 26.6468 18.4528 26.9838 16.2213C26.3591 16.747 25.6165 17.1523 24.7797 17.3881Z" fill="#FF8616"/>
<path d="M26.5019 36.605L19.6573 38.5342C19.0273 38.7118 18.6605 39.3665 18.838 39.9965C19.0156 40.6265 19.6703 40.9933 20.3003 40.8158L22.5819 40.1727L24.8326 48.1581C25.0101 48.7881 25.6649 49.1549 26.2949 48.9774C26.9249 48.7998 27.2917 48.145 27.1141 47.515L24.8634 39.5296L27.145 38.8866C27.775 38.709 28.1418 38.0543 27.9642 37.4243C27.7866 36.7943 27.1319 36.4275 26.5019 36.605Z" fill="#6F5575"/>
<path d="M35.4211 46.4051C32.9049 47.1143 30.1368 45.1325 29.2503 41.9874C28.3639 38.8423 29.6896 35.7066 32.2058 34.9974C34.7219 34.2882 37.49 36.27 38.3765 39.4151C39.263 42.5602 37.9372 45.6959 35.4211 46.4051ZM32.8488 37.2789C31.6121 37.6275 31.009 39.4893 31.5319 41.3443C32.0547 43.1993 33.5413 44.4721 34.778 44.1236C36.0147 43.775 36.6178 41.9132 36.095 40.0582C35.5721 38.2031 34.0856 36.9304 32.8488 37.2789Z" fill="#6F5575"/>
<path d="M60.5181 39.3315C58.0019 40.0406 55.2338 38.0588 54.3473 34.9137C53.4609 31.7686 54.7866 28.6329 57.3028 27.9237C59.8189 27.2145 62.587 29.1964 63.4735 32.3415C64.36 35.4866 63.0342 38.6223 60.5181 39.3315ZM57.9458 30.2053C56.7091 30.5538 56.106 32.4156 56.6289 34.2706C57.1517 36.1257 58.6383 37.3985 59.875 37.0499C61.1117 36.7013 61.7148 34.8396 61.192 32.9845C60.6691 31.1295 59.1826 29.8567 57.9458 30.2053Z" fill="#6F5575"/>
<path d="M45.688 43.5113C45.058 43.6889 44.4033 43.3221 44.2257 42.6921L41.3319 32.4251C41.2374 32.0898 41.2953 31.7299 41.49 31.441C41.6848 31.1522 41.9962 30.9634 42.3431 30.9255C42.6763 30.8889 50.525 30.0902 52.0658 35.5568C53.3375 40.0687 48.45 42.7329 45.688 43.5113ZM44.0248 33.2414L46.1609 40.8201C47.7662 40.1402 50.4636 38.6101 49.7842 36.1998C49.0904 33.7382 45.9138 33.2864 44.0248 33.2414Z" fill="#6F5575"/>
<path d="M57.5626 46.3214L34.7472 52.752C34.1172 52.9296 33.4624 52.5628 33.2849 51.9328C33.1073 51.3028 33.4741 50.6481 34.1041 50.4705L56.9196 44.0399C57.5496 43.8623 58.2043 44.2291 58.3819 44.8591C58.5594 45.4891 58.1926 46.1439 57.5626 46.3214Z" fill="#F79235"/>
<path d="M53.4664 53.633L38.6364 57.8129C38.0064 57.9904 37.3516 57.6236 37.1741 56.9936C36.9965 56.3636 37.3633 55.7089 37.9933 55.5313L52.8234 51.3514C53.4534 51.1739 54.1081 51.5407 54.2857 52.1707C54.4632 52.8007 54.0964 53.4554 53.4664 53.633Z" fill="#F79235"/>
<defs>
<filter id="filter0_d_1_445" x="0" y="0" width="105" height="100.66" filterUnits="userSpaceOnUse" color-interpolation-filters="sRGB">
<feFlood flood-opacity="0" result="BackgroundImageFix"/>
<feColorMatrix in="SourceAlpha" type="matrix" values="0 0 0 0 0 0 0 0 0 0 0 0 0 0 0 0 0 0 127 0" result="hardAlpha"/>
<feOffset dx="10" dy="6"/>
<feGaussianBlur stdDeviation="7"/>
<feComposite in2="hardAlpha" operator="out"/>
<feColorMatrix type="matrix" values="0 0 0 0 0.027451 0 0 0 0 0.184314 0 0 0 0 0.168627 0 0 0 0.5 0"/>
<feBlend mode="normal" in2="BackgroundImageFix" result="effect1_dropShadow_1_445"/>
<feBlend mode="normal" in="SourceGraphic" in2="effect1_dropShadow_1_445" result="shape"/>
</filter>
</defs>
</svg>
